<svg width="49" height="27" viewBox="0 0 49 27" fill="none" xmlns="http://www.w3.org/2000/svg">
<path d="M29.6703 13.0498C30.3617 13.0498 30.9223 12.492 30.9223 11.8039C30.9223 11.1158 30.3617 10.558 29.6703 10.558C28.9788 10.558 28.4183 11.1158 28.4183 11.8039C28.4183 12.492 28.9788 13.0498 29.6703 13.0498Z" fill="white"/>
<path fill-rule="evenodd" clip-rule="evenodd" d="M18.9676 8.37274C15.8949 8.37274 13.3875 10.3054 13.3875 13.1406C13.3875 15.9757 15.8597 17.896 18.9676 17.896C22.0755 17.896 24.5477 15.953 24.5477 13.1406C24.5477 10.3281 22.0402 8.37274 18.9676 8.37274ZM18.98 10.3302C20.887 10.3302 22.2639 11.5829 22.2639 13.1406C22.2639 14.7456 20.8165 15.9406 18.98 15.9406C17.1434 15.9406 15.6609 14.7683 15.6609 13.1406C15.6609 11.5128 17.0731 10.3302 18.98 10.3302Z" fill="#FF2F42"/>
<path fill-rule="evenodd" clip-rule="evenodd" d="M2.72223 8.56024V17.6982H7.12417C10.3273 17.6982 12.2218 15.7882 12.2218 13.0705C12.2218 10.598 10.6689 8.56024 6.99579 8.56024H2.72223ZM6.86534 15.7758C6.25454 15.7758 5.58163 15.7758 4.85279 16.1034V16.1055L4.6064 15.8706C5.07643 14.0657 5.06399 12.2031 4.59399 10.2827L4.85279 10.1653C5.46362 10.4806 5.94811 10.4806 6.45331 10.4806C7.84264 10.4806 9.95043 10.4806 9.95043 13.1632C9.95043 15.4008 8.39547 15.7758 6.86534 15.7758Z" fill="#FF2F42"/>
<path fill-rule="evenodd" clip-rule="evenodd" d="M35.1177 13.1406C35.1177 10.3054 37.625 8.37274 40.6976 8.37274C43.7703 8.37274 46.2778 10.3281 46.2778 13.1406C46.2778 15.953 43.8055 17.896 40.6976 17.896C37.5899 17.896 35.1177 15.9757 35.1177 13.1406ZM43.9939 13.1406C43.9939 11.5829 42.6171 10.3302 40.7101 10.3302C38.8032 10.3302 37.3911 11.5128 37.3911 13.1406C37.3911 14.7683 38.8735 15.9406 40.7101 15.9406C42.5466 15.9406 43.9939 14.7456 43.9939 13.1406Z" fill="#FF2F42"/>
<path d="M23.0283 2.36572H36.3125V2.92548C36.3125 3.02578 36.27 3.12011 36.1975 3.18628L35.008 4.24966C34.8527 4.42215 34.6391 4.52047 34.4174 4.52047H33.4738C33.4738 4.52047 33.4718 5.29859 33.4718 5.75298C33.4718 6.20733 33.2847 6.69791 33.2847 6.69791L33.4121 6.8247C33.5487 6.63824 34.1519 5.89878 34.5524 5.89878L36.0664 5.89076V7.81279L33.4718 7.84288V11.6067L33.0182 11.1573C32.5012 10.6459 31.9833 10.1354 31.4678 9.6225V6.02119C31.4678 5.48494 31.5874 5.04871 31.6973 4.56959L31.6976 4.56862L31.6982 4.56556L31.6991 4.56255C31.7 4.55884 31.7008 4.55557 31.7006 4.55204C31.7006 4.54916 31.6997 4.5461 31.6976 4.54255C31.6838 4.52205 31.6274 4.50162 31.5736 4.49137C31.5327 4.48357 31.4933 4.48173 31.4759 4.4904C31.188 4.62998 30.8824 4.68206 30.5653 4.68744C29.9688 4.69745 29.371 4.69736 28.7745 4.68744C28.4579 4.68204 28.1524 4.62985 27.8649 4.4904C27.8246 4.47034 27.6674 4.50641 27.6432 4.54255C27.6371 4.55258 27.641 4.55858 27.6432 4.56862L27.6434 4.56959C27.7534 5.04849 27.8729 5.48962 27.8729 6.02119V9.6225C27.2065 10.2855 26.5367 10.9451 25.869 11.6067V7.84288L23.2741 7.81279V5.89076L24.7883 5.89878C25.1888 5.89878 25.7919 6.63824 25.9284 6.8247L26.0558 6.69791C26.0558 6.69791 25.869 6.20733 25.869 5.75298C25.869 5.29859 25.867 4.52047 25.867 4.52047H24.9234C24.7017 4.52047 24.4878 4.42215 24.3327 4.24966L23.143 3.18628C23.0705 3.12011 23.0283 3.02578 23.0283 2.92548V2.36572Z" fill="#FF2F42"/>
<path d="M25.8933 14.3597L33.5316 14.37V19.8754C33.5316 20.8953 33.5316 23.7057 29.9185 23.7057C27.6595 23.7057 25.8933 22.5354 25.8933 20.4853V18.9318H28.0365V20.1804C28.0365 21.0478 28.7072 21.7505 29.8129 21.7505C31.2602 21.7505 31.3783 20.8006 31.3783 20.168V17.7985C31.3783 17.189 31.4876 16.7045 31.6805 16.1275C31.6825 16.1214 31.6805 16.1172 31.6742 16.1152C31.6267 16.0942 31.4403 15.973 31.3948 15.9957C30.8737 16.2639 30.3133 16.3294 29.7362 16.3294H25.8933V14.3597Z" fill="#FF2F42"/>
</svg>
