<svg width="54" height="38" viewBox="0 0 54 38" fill="none" xmlns="http://www.w3.org/2000/svg">
<path d="M24.304 31.6798C24.5117 31.6801 24.7174 31.7203 24.9092 31.7982C25.101 31.8761 25.2752 31.9902 25.4219 32.1338C25.5685 32.2775 25.6848 32.448 25.764 32.6355C25.8432 32.823 25.8838 33.024 25.8836 33.2269C25.8833 33.4298 25.8421 33.6306 25.7623 33.8179C25.6825 34.0052 25.5658 34.1754 25.4187 34.3186C25.2716 34.4619 25.097 34.5754 24.905 34.6528C24.713 34.7302 24.5072 34.7699 24.2995 34.7696C23.88 34.769 23.4779 34.6057 23.1817 34.3155C22.8855 34.0254 22.7194 33.6322 22.72 33.2225C22.7206 32.8127 22.8878 32.42 23.1849 32.1307C23.4819 31.8414 23.8845 31.6792 24.304 31.6798ZM49.1084 22.1269C48.9007 22.1268 48.695 22.0867 48.5032 22.0089C48.3113 21.9312 48.137 21.8172 47.9903 21.6737C47.8435 21.5301 47.7271 21.3597 47.6477 21.1722C47.5684 20.9847 47.5276 20.7838 47.5278 20.5809C47.5279 20.3781 47.569 20.1772 47.6486 19.9898C47.7282 19.8025 47.8449 19.6322 47.9919 19.4889C48.1388 19.3455 48.3133 19.2318 48.5053 19.1543C48.6972 19.0768 48.903 19.037 49.1107 19.0372C49.5302 19.0374 49.9324 19.2005 50.2288 19.4904C50.5253 19.7804 50.6916 20.1734 50.6913 20.5831C50.691 20.9929 50.5241 21.3857 50.2272 21.6752C49.9304 21.9647 49.5279 22.1272 49.1084 22.1269ZM49.1084 15.8067C47.8115 15.8079 46.568 16.3116 45.6509 17.2073C44.7338 18.103 44.218 19.3175 44.2168 20.5842C44.2168 21.0963 44.3046 21.6061 44.4756 22.1028L28.3181 30.5041C27.8701 29.8687 27.2706 29.3493 26.5713 28.9906C25.872 28.6319 25.0939 28.4446 24.304 28.445C22.4387 28.445 20.74 29.4888 19.9165 31.1172L5.40147 23.6411C3.86695 22.8543 2.71943 20.3887 2.84093 18.1427C2.90393 16.9714 3.31794 16.0616 3.9502 15.71C4.3507 15.4903 4.83221 15.5079 5.34522 15.7694L5.43972 15.8199C9.28728 17.7977 21.874 24.274 22.405 24.5135C23.2218 24.8849 23.6763 25.0343 25.0713 24.3882L51.0907 11.172C51.4732 11.0314 51.9187 10.6732 51.9187 10.1304C51.9187 9.37883 51.1222 9.08216 51.12 9.08216C49.6394 8.38992 47.3646 7.35047 45.1461 6.3352C40.403 4.16619 35.0277 1.70931 32.6674 0.500643C30.6289 -0.541006 28.9886 0.338023 28.6961 0.513829L28.1291 0.788525C17.5044 5.91985 3.28419 12.7983 2.47417 13.2795C1.0274 14.141 0.129637 15.8573 0.0126349 17.9867C-0.167368 21.3644 1.59441 24.8871 4.1167 26.1771L19.4664 33.9081C19.6355 35.0438 20.2173 36.0821 21.1055 36.8334C21.9937 37.5847 23.129 37.9988 24.304 38C25.5873 37.9979 26.8185 37.504 27.7328 36.6246C28.6471 35.7451 29.1715 34.5504 29.1934 33.2972L46.1001 24.3465C46.9551 25.0014 48.0194 25.3596 49.1084 25.3596C50.4054 25.3584 51.6489 24.8547 52.566 23.959C53.4831 23.0633 53.9988 21.8488 54 20.5821C53.9988 19.3153 53.4831 18.1008 52.566 17.2051C51.6489 16.3094 50.4054 15.8057 49.1084 15.8045" fill="#FED577"/>
</svg>
