<svg width="150" height="35" viewBox="0 0 150 35" fill="none" xmlns="http://www.w3.org/2000/svg">
<path fill-rule="evenodd" clip-rule="evenodd" d="M0.034729 16.9844C0.034729 26.3338 7.61369 33.9127 16.963 33.9127C26.3123 33.9127 33.8918 26.3338 33.8918 16.9844C33.8918 7.63507 26.3123 0.0560913 16.963 0.0560913C7.61369 0.0560913 0.034729 7.63507 0.034729 16.9844Z" fill="#0C0C4F"/>
<path fill-rule="evenodd" clip-rule="evenodd" d="M9.49638 12.9963L9.91426 11.7052C9.9992 11.4426 10.2064 11.2383 10.47 11.1577L11.7673 10.7588C11.9469 10.7039 11.9484 10.4506 11.7703 10.3928L10.4787 9.97493C10.2166 9.89001 10.0123 9.68275 9.93125 9.41923L9.53277 8.12188C9.47793 7.94278 9.22458 7.94083 9.16681 8.11945L8.74893 9.41048C8.66399 9.67258 8.45675 9.8769 8.1932 9.95796L6.89585 10.3564C6.71628 10.4118 6.71433 10.6646 6.89294 10.7224L8.18446 11.1403C8.44655 11.2252 8.65089 11.4329 8.73194 11.6965L9.13042 12.9933C9.18526 13.1729 9.43861 13.1749 9.49638 12.9963Z" fill="#FAFAFA"/>
<path fill-rule="evenodd" clip-rule="evenodd" d="M30.0022 12.2449C29.4675 11.6468 28.6327 11.3101 27.8212 11.172C27.0032 11.0394 26.1455 11.0517 25.338 11.1951C23.7041 11.4715 22.2197 12.148 20.9251 12.9827C20.2527 13.3923 19.6794 13.8663 19.0854 14.3489C18.7992 14.5931 18.5383 14.853 18.2665 15.1093L17.524 15.8481C16.7171 16.6915 15.9219 17.4596 15.1524 18.0963C14.3798 18.7301 13.6575 19.2115 12.9457 19.5476C12.2344 19.8855 11.4732 20.0842 10.4811 20.116C9.49768 20.1507 8.3342 19.9732 7.08967 19.6802C5.83845 19.3886 4.52454 18.9728 3.05627 18.6151C3.56859 20.0364 4.34006 21.2924 5.33055 22.4404C6.33266 23.5686 7.584 24.597 9.19149 25.2733C10.7758 25.9646 12.7667 26.2127 14.6283 25.8384C16.4948 25.479 18.1328 24.6152 19.4567 23.6164C20.7841 22.6074 21.858 21.4579 22.7634 20.2628C23.0132 19.9326 23.1455 19.7478 23.3263 19.4898L23.8262 18.7493C24.1736 18.2913 24.4899 17.7698 24.8338 17.316C25.508 16.3656 26.1725 15.4163 26.9447 14.5417C27.3335 14.0981 27.7434 13.6738 28.2272 13.2661C28.4687 13.067 28.7293 12.8722 29.0182 12.6968C29.3113 12.5075 29.621 12.3594 30.0022 12.2449Z" fill="#EC796B"/>
<path fill-rule="evenodd" clip-rule="evenodd" d="M30.0022 12.2448C29.4277 10.795 28.3595 9.57451 26.9259 8.67393C25.5007 7.78323 23.5215 7.32869 21.5604 7.71616C20.5914 7.90355 19.6526 8.26433 18.8289 8.74475C18.0089 9.2233 17.274 9.79932 16.6379 10.4173C16.3203 10.7273 16.032 11.0507 15.7457 11.376L15.0034 12.3223L13.857 13.8456C12.3955 15.8056 10.8217 18.1025 8.23897 18.7831C5.70347 19.4512 4.60378 18.8595 3.05627 18.615C3.33924 19.3456 3.68972 20.055 4.1649 20.6791C4.63121 21.3159 5.18199 21.9139 5.86676 22.4265C6.21281 22.6727 6.57817 22.9157 6.98396 23.1218C7.38789 23.3209 7.82349 23.4962 8.28845 23.6282C9.2133 23.8817 10.2545 23.9704 11.2627 23.8341C12.2713 23.6996 13.2354 23.3798 14.0781 22.9553C14.927 22.5349 15.6665 22.0228 16.3268 21.4823C17.6394 20.3922 18.6604 19.1878 19.5228 17.9704C19.9566 17.3617 20.3504 16.7415 20.7146 16.1211L21.1432 15.3826C21.2743 15.1667 21.4068 14.9494 21.5415 14.7472C22.0845 13.9344 22.6157 13.2827 23.261 12.7935C23.8972 12.2917 24.7832 11.9209 25.9672 11.8348C27.1462 11.7476 28.5073 11.9086 30.0022 12.2448Z" fill="#FAFAFA"/>
<path fill-rule="evenodd" clip-rule="evenodd" d="M23.6235 24.2912C23.6235 25.356 24.4873 26.2198 25.552 26.2198C26.617 26.2198 27.4795 25.356 27.4795 24.2912C27.4795 23.2265 26.617 22.3627 25.552 22.3627C24.4873 22.3627 23.6235 23.2265 23.6235 24.2912Z" fill="#EC796B"/>
<path d="M147.985 12.2508V10.3035C147.985 10.2263 147.922 10.1637 147.845 10.1637H136.749C136.672 10.1637 136.61 10.2263 136.61 10.3035V12.2508H141.119V24.8488H143.475V12.2508H147.985Z" fill="#0C0C4F"/>
<path d="M125.013 10.1637C124.936 10.1637 124.873 10.2263 124.873 10.3035V24.7088C124.873 24.786 124.936 24.8488 125.013 24.8488H134.351C134.428 24.8488 134.49 24.786 134.49 24.7088V22.7822H127.229V18.1671H133.228V16.142H127.229V12.2301H133.973V10.3035C133.973 10.2263 133.911 10.1637 133.833 10.1637H125.013Z" fill="#0C0C4F"/>
<path d="M119.599 24.7633L119.649 24.8488H121.459C121.537 24.8488 121.599 24.786 121.599 24.7088V10.3035C121.599 10.2263 121.537 10.1637 121.459 10.1637H119.285V20.3338C118.907 19.7327 118.469 19.0709 117.969 18.3487C117.333 17.4088 116.649 16.4554 115.917 15.4883C115.199 14.5075 114.467 13.5612 113.721 12.6492C112.988 11.7227 112.295 10.9124 111.643 10.2187L111.591 10.1637H109.888C109.811 10.1637 109.748 10.2263 109.748 10.3035V24.7088C109.748 24.786 109.811 24.8488 109.888 24.8488H112.063V13.9538C112.36 14.305 112.677 14.6942 113.013 15.1215C113.466 15.6989 113.934 16.3178 114.416 16.9782L114.416 16.9789L114.417 16.9796C114.898 17.6259 115.379 18.2998 115.861 19.0014L115.861 19.0023L115.862 19.0033C116.357 19.7052 116.832 20.4001 117.286 21.088L117.287 21.0887L117.287 21.0894C117.741 21.763 118.16 22.416 118.545 23.0479L118.545 23.049L118.546 23.0503C118.945 23.6835 119.296 24.2545 119.599 24.7633Z" fill="#0C0C4F"/>
<path d="M106.902 10.4562L106.956 10.3977C107.038 10.3079 106.974 10.1637 106.852 10.1637H104.273L104.221 10.2243C103.878 10.6215 103.453 11.0883 102.944 11.6248C102.448 12.1482 101.917 12.6993 101.353 13.2779C100.788 13.8564 100.216 14.4348 99.6379 15.0133C99.1753 15.465 98.7435 15.8813 98.3426 16.2623V10.1637H96.1264C96.0493 10.1637 95.9867 10.2263 95.9867 10.3035V24.7088C95.9867 24.786 96.0493 24.8488 96.1264 24.8488H98.3426V18.1867C98.829 18.5052 99.3263 18.8779 99.8344 19.3052L99.8353 19.3058L99.8359 19.3064C100.451 19.8124 101.053 20.3666 101.642 20.9691L101.644 20.9706L101.645 20.972C102.247 21.5603 102.815 22.1828 103.349 22.8396L103.349 22.8403L103.35 22.8411C103.883 23.4842 104.355 24.1264 104.764 24.768L104.816 24.8488H107.33C107.438 24.8488 107.505 24.7324 107.451 24.6392L107.421 24.5869C107.044 23.9301 106.57 23.2408 106.001 22.5186C105.446 21.7975 104.85 21.0906 104.213 20.3977C103.575 19.7047 102.924 19.053 102.258 18.4427C101.655 17.8899 101.079 17.4153 100.529 17.0195C100.996 16.5636 101.492 16.074 102.015 15.5508C102.595 14.9711 103.174 14.3845 103.754 13.791C104.347 13.1837 104.913 12.5971 105.452 12.031L105.453 12.0303L105.453 12.0295C105.991 11.45 106.474 10.9255 106.902 10.4562Z" fill="#0C0C4F"/>
<path fill-rule="evenodd" clip-rule="evenodd" d="M82.6125 10.0537C82.5354 10.0537 82.4728 10.1163 82.4728 10.1935V24.7177C82.4728 24.795 82.5354 24.8576 82.6125 24.8576H84.609V19.5174H87.5254C87.8535 19.9103 88.1734 20.3213 88.4856 20.7505L88.4867 20.7522L88.488 20.7538C88.9984 21.423 89.4701 22.1212 89.9031 22.8484L89.9036 22.8491L89.904 22.85C90.2961 23.4935 90.6384 24.129 90.9309 24.7567L90.9778 24.8576H93.3403C93.4416 24.8576 93.5091 24.7532 93.4671 24.6611C93.1954 24.0658 92.901 23.4827 92.574 22.9149C92.1296 22.1212 91.6421 21.3352 91.1117 20.5573C90.8085 20.1127 90.4989 19.6809 90.1828 19.2617C91.0639 18.9922 91.7612 18.505 92.2654 17.7979L92.2659 17.7974C92.8712 16.9416 93.1712 15.9351 93.1712 14.7855C93.1712 13.9955 93.0339 13.2727 92.7559 12.6196C92.4769 11.9569 92.0571 11.4074 91.4979 10.9739C90.9424 10.538 90.2582 10.2607 89.4523 10.1363C89.2644 10.1017 89.0702 10.0809 88.8701 10.0739C88.6746 10.0604 88.5041 10.0536 88.359 10.0536C87.7466 10.0536 87.1339 10.0535 86.5215 10.0534C85.2184 10.0533 83.9156 10.0532 82.6125 10.0537ZM90.9949 14.7855C90.9949 15.167 90.9315 15.5425 90.8038 15.9126C90.6791 16.2679 90.4798 16.5795 90.2044 16.8487C89.9434 17.1036 89.5993 17.2844 89.1632 17.3856C89.025 17.417 88.8763 17.4392 88.7164 17.452L88.7162 17.452L88.716 17.4521C88.5589 17.4651 88.4201 17.4715 88.2988 17.4715H84.609V12.0995H88.2988C88.4201 12.0995 88.5589 12.1059 88.716 12.1189L88.7196 12.1192L88.7235 12.1194C88.8789 12.1256 89.0229 12.1473 89.1564 12.1837L89.1606 12.1849L89.1651 12.1858C89.5995 12.2803 89.9426 12.4604 90.2029 12.7208L90.2036 12.7215L90.2044 12.7222C90.4794 12.991 90.6786 13.3057 90.8038 13.668V13.6685L90.804 13.6689C90.9313 14.0319 90.9949 14.4038 90.9949 14.7855Z" fill="#0C0C4F"/>
<path fill-rule="evenodd" clip-rule="evenodd" d="M77.2311 22.9099L77.2314 22.9105L77.2316 22.9112C77.4388 23.5056 77.6599 24.1138 77.895 24.7356L77.9377 24.8488H80.301C80.3981 24.8488 80.4656 24.7523 80.4324 24.661C79.9162 23.2427 79.395 21.826 78.8634 20.4134C78.3804 19.1161 77.9042 17.8876 77.4347 16.7278C76.9792 15.568 76.5234 14.4632 76.0676 13.4134C75.6103 12.3464 75.129 11.29 74.6278 10.243C74.6044 10.1945 74.5556 10.1637 74.5018 10.1637H72.6167C72.5629 10.1637 72.5139 10.1945 72.4907 10.243C71.9893 11.29 71.5082 12.3465 71.0509 13.4135C70.5952 14.4629 70.1327 15.5674 69.6634 16.7269L69.663 16.7278L69.6628 16.7286C69.2072 17.888 68.7379 19.1163 68.2551 20.4134C67.7233 21.826 67.2021 23.2427 66.6859 24.661C66.6527 24.7523 66.7202 24.8488 66.8173 24.8488H69.0797L69.0799 24.8485H69.1241L69.1759 24.7928C69.7217 24.207 70.3318 23.6318 71.0064 23.0678L71.007 23.0674L71.0076 23.0668C71.6848 22.4886 72.3909 21.9525 73.1256 21.4581L73.1274 21.457L73.1289 21.4558C73.8527 20.9443 74.5813 20.4854 75.3144 20.0788L75.3152 20.0784L75.3161 20.0779C75.5801 19.9276 75.84 19.7876 76.0959 19.6579L76.5904 21.0706L76.5909 21.0717C76.8112 21.6914 77.0246 22.3041 77.2311 22.9099ZM74.6887 15.9441L74.6891 15.9453L74.6895 15.9465C74.8886 16.4505 75.0877 16.9628 75.2867 17.4837C75.2719 17.4902 75.2567 17.497 75.2413 17.5041C74.5408 17.8231 73.7878 18.2356 72.9827 18.7405C72.2119 19.224 71.4472 19.7492 70.6886 20.3162L71.0098 19.3989C71.4347 18.2067 71.8597 17.0555 72.2846 15.9453C72.6752 14.9441 73.0821 13.9811 73.5051 13.0563C73.9157 13.9807 74.3102 14.9433 74.6887 15.9441Z" fill="#0C0C4F"/>
<path d="M67.2628 12.2508V10.3035C67.2628 10.2263 67.2002 10.1637 67.1228 10.1637H56.0274C55.9502 10.1637 55.8876 10.2263 55.8876 10.3035V12.2508H60.3971V24.7088C60.3971 24.786 60.4596 24.8488 60.537 24.8488H62.6134C62.6906 24.8488 62.7531 24.786 62.7531 24.7088V12.2508H67.2628Z" fill="#0C0C4F"/>
<path d="M45.7067 24.6701L45.7061 24.6699C44.8515 24.3056 44.1407 23.7855 43.5771 23.1092L43.5765 23.1084L43.5758 23.1077C43.0181 22.4229 42.6557 21.6154 42.4875 20.6897C42.4791 20.6434 42.4896 20.5956 42.5168 20.5573C42.5441 20.5189 42.5856 20.4931 42.6321 20.4858L44.5116 20.1896C44.6006 20.1756 44.6856 20.2314 44.7079 20.3187C44.9363 21.2061 45.4065 21.8949 46.1192 22.3941C46.8426 22.8891 47.6957 23.1392 48.6857 23.1392C49.3279 23.1392 49.9018 23.04 50.4098 22.8448C50.9237 22.6429 51.3227 22.3599 51.6139 21.999C51.9004 21.6441 52.0451 21.2239 52.0451 20.7299C52.0451 20.4232 51.9906 20.1722 51.8897 19.9705C51.8888 19.9687 51.888 19.9669 51.8871 19.965C51.789 19.7501 51.6518 19.5706 51.4751 19.4244C51.4733 19.423 51.4716 19.4215 51.4701 19.4201C51.2927 19.2617 51.0889 19.1278 50.8581 19.0188C50.622 18.9072 50.3758 18.8152 50.1193 18.7429L50.1169 18.7423L46.368 17.6288C45.9506 17.5036 45.5471 17.3471 45.1575 17.1592L45.1564 17.1587L45.1551 17.1581C44.7596 16.9603 44.4051 16.7159 44.0927 16.4249L44.0918 16.4239L44.0912 16.4234C43.7745 16.1211 43.5233 15.7617 43.3376 15.3471L43.3371 15.3461C43.1481 14.9175 43.0566 14.4192 43.0566 13.8559C43.0566 12.9528 43.29 12.1729 43.7646 11.5259L43.7648 11.5256C44.2414 10.8782 44.8841 10.3863 45.6863 10.0484C46.4878 9.71104 47.3867 9.54771 48.3806 9.55466C49.3877 9.5616 50.2937 9.74226 51.0951 10.1006C51.9028 10.4519 52.5726 10.959 53.1015 11.6218C53.6385 12.2861 53.9966 13.0788 54.1785 13.9955C54.1877 14.0416 54.1778 14.0895 54.1513 14.1283C54.1247 14.1671 54.0836 14.1936 54.0373 14.2017L52.1068 14.5387C52.0609 14.5467 52.014 14.5361 51.9761 14.5093C51.9379 14.4825 51.9122 14.4417 51.9045 14.3959C51.807 13.8239 51.5906 13.3388 51.2576 12.9355L51.2556 12.9331C50.9265 12.5201 50.5138 12.2036 50.0145 11.9831L50.0128 11.9824C49.5124 11.7549 48.9613 11.6369 48.357 11.6303H48.3568C47.7776 11.6237 47.2598 11.7159 46.8008 11.9033C46.3406 12.0913 45.9814 12.3507 45.7166 12.6787L45.7155 12.68C45.4556 12.9955 45.3263 13.3578 45.3263 13.7742C45.3263 14.1876 45.4442 14.5064 45.6673 14.7475C45.9079 15.0007 46.2038 15.2052 46.5578 15.3598C46.9331 15.5139 47.2971 15.6407 47.6505 15.7407L47.6513 15.741L50.4491 16.5476C50.7752 16.6379 51.1476 16.7621 51.5659 16.9198C52.0037 17.0823 52.4258 17.3112 52.8321 17.6053C53.2504 17.9012 53.5939 18.2962 53.8637 18.7861C54.141 19.2824 54.2738 19.8996 54.2738 20.6278C54.2738 21.3597 54.126 22.0176 53.8256 22.5971C53.5341 23.1729 53.1248 23.6565 52.5998 24.0467L52.5986 24.0476C52.0766 24.4286 51.4721 24.7161 50.7876 24.9118C50.1028 25.1143 49.3712 25.215 48.5938 25.215C47.532 25.215 46.5686 25.0346 45.7067 24.6701Z" fill="#0C0C4F"/>
</svg>
