<svg width="52" height="50" viewBox="0 0 52 50" fill="none" xmlns="http://www.w3.org/2000/svg">
<path d="M36.6296 14.9651C36.64 14.9651 36.6538 14.9651 36.6676 14.9651C37.0284 14.9651 37.3633 15.073 37.6378 15.259L37.6327 15.2556C37.8329 15.4233 37.9676 15.659 38.0004 15.9246V15.9296C38.0349 16.1321 38.0539 16.3645 38.0539 16.6019C38.0539 16.7098 38.0505 16.8161 38.0418 16.9223V16.9074C37.6534 20.84 35.9684 30.3768 35.1121 34.7792C34.7495 36.6434 34.0365 37.2676 33.3459 37.3274C31.8457 37.4618 30.7062 36.3745 29.2526 35.4582C26.9772 34.0222 25.691 33.1292 23.4829 31.7297C20.9295 30.1145 22.5851 29.2231 24.0388 27.7722C24.4203 27.3904 31.0343 21.6052 31.1637 21.0807C31.1706 21.0491 31.1741 21.0143 31.1741 20.9778C31.1741 20.8483 31.124 20.7304 31.0429 20.6408C30.9531 20.5843 30.8409 20.5528 30.7235 20.5528C30.6458 20.5528 30.5716 20.5677 30.5025 20.5926L30.506 20.591C30.2781 20.6408 26.6434 22.9504 19.6019 27.5199C18.8336 28.1026 17.8633 28.4711 16.8068 28.5143H16.7964C15.2996 28.34 13.9409 28.0196 12.6513 27.5631L12.779 27.6029C11.1596 27.095 9.87344 26.8277 9.98393 25.9678C10.0426 25.5207 10.6837 25.0631 11.9072 24.595C19.4436 21.4376 24.4692 19.3565 26.9841 18.3516C29.7584 16.9356 32.9748 15.7703 36.3568 15.0149L36.6279 14.9635L36.6296 14.9651ZM25.9396 0C11.6068 0.0332005 0 11.2135 0 25C0 38.8064 11.6396 50 26 50C40.3604 50 52 38.8081 52 25C52 11.2135 40.3932 0.0332005 26.0639 0H26.0604C26.0201 0 25.9799 0 25.9396 0Z" fill="#FED577"/>
</svg>
