<svg width="52" height="42" viewBox="0 0 52 42" fill="none" xmlns="http://www.w3.org/2000/svg">
<path fill-rule="evenodd" clip-rule="evenodd" d="M16.354 42C35.9762 42 46.709 25.8391 46.709 11.8262C46.709 11.3662 46.709 10.9096 46.6778 10.4547C48.7656 8.95574 50.5674 7.09456 52 4.96498C50.0552 5.82302 47.9882 6.38573 45.8744 6.63382C48.1 5.308 49.7666 3.22505 50.5648 0.767233C48.4692 2.0026 46.1786 2.87447 43.7892 3.34228C39.7488 -0.927261 32.9914 -1.13412 28.6936 2.88213C25.9246 5.47175 24.7468 9.33284 25.6074 13.0157C17.03 12.5867 9.0376 8.56015 3.6192 1.93619C0.787801 6.78203 2.236 12.9789 6.9238 16.0906C5.226 16.0415 3.5646 15.5871 2.08 14.7653V14.8999C2.0826 19.9473 5.6628 24.2934 10.6392 25.2936C9.0688 25.72 7.4204 25.7819 5.824 25.4743C7.2202 29.7956 11.2268 32.7553 15.7898 32.8406C12.012 35.792 7.345 37.3947 2.5402 37.3895C1.6926 37.3869 0.845 37.3378 0 37.237C4.8802 40.3487 10.556 42.0001 16.354 41.9923" fill="#FED577"/>
</svg>
